<svg width="423" height="159" viewBox="0 0 423 159" fill="none" xmlns="http://www.w3.org/2000/svg">
<path d="M22.4769 110L28.5866 83.8861L34.6963 57.7722H46.9157L35.2781 110H22.4769Z" fill="white"/>
<path d="M68.6391 31.039C87.2007 31.9575 102 49.273 102 70.5C102 92.1688 86.5783 109.762 67.4753 109.997V110H30.9467L37.8811 98.15H67.8632V98.1277C80.8037 97.5425 91.1383 85.2991 91.1383 70.2806C91.1383 55.262 80.8037 43.0181 67.8632 42.433V42.4111H23.191L25.7333 31H68.6391V31.039Z" fill="white"/>
<path d="M68.2512 61.2186H19L21.5283 49.8722H68.2512V61.2186Z" fill="white"/>
<path d="M67.903 49.8546C79.3075 50.3347 88.4229 60.9586 88.4229 73.994C88.4228 87.0293 79.3074 97.6528 67.903 98.1329V98.0489C76.2775 97.7832 82.9977 89.6356 82.9977 79.6228C82.9977 69.61 76.2776 61.462 67.903 61.1963V49.8546Z" fill="white"/>
<path d="M126.832 111.024C122.224 111.024 118.256 110.064 114.928 108.144C111.643 106.224 109.104 103.493 107.312 99.952C105.563 96.4107 104.688 92.208 104.688 87.344C104.688 82.48 105.563 78.2773 107.312 74.736C109.104 71.152 111.643 68.4 114.928 66.48C118.256 64.5173 122.224 63.536 126.832 63.536C131.44 63.536 135.387 64.5173 138.672 66.48C142 68.4 144.539 71.152 146.288 74.736C148.08 78.2773 148.976 82.48 148.976 87.344C148.976 92.208 148.08 96.4107 146.288 99.952C144.539 103.493 142 106.224 138.672 108.144C135.387 110.064 131.44 111.024 126.832 111.024ZM126.768 102.832C129.328 102.832 131.504 102.235 133.296 101.04C135.131 99.8027 136.517 98.032 137.456 95.728C138.437 93.424 138.928 90.6293 138.928 87.344C138.928 84.0587 138.437 81.264 137.456 78.96C136.517 76.6133 135.131 74.8213 133.296 73.584C131.504 72.3467 129.328 71.728 126.768 71.728C124.251 71.728 122.096 72.3467 120.304 73.584C118.512 74.8213 117.125 76.6133 116.144 78.96C115.205 81.264 114.736 84.0587 114.736 87.344C114.736 90.6293 115.205 93.424 116.144 95.728C117.125 98.032 118.512 99.8027 120.304 101.04C122.139 102.235 124.293 102.832 126.768 102.832ZM175.688 111.024C171.549 111.024 167.858 110.085 164.616 108.208C161.416 106.331 158.898 103.621 157.064 100.08C155.272 96.5387 154.376 92.2933 154.376 87.344C154.376 82.5227 155.25 78.3413 157 74.8C158.749 71.216 161.245 68.4427 164.488 66.48C167.73 64.5173 171.528 63.536 175.88 63.536C181.81 63.536 186.418 65.008 189.704 67.952C193.032 70.8533 195.165 75.0133 196.104 80.432L185.992 80.816C185.48 77.9573 184.37 75.7387 182.664 74.16C180.957 72.5387 178.696 71.728 175.88 71.728C173.448 71.728 171.378 72.368 169.672 73.648C167.965 74.928 166.664 76.7413 165.768 79.088C164.872 81.4347 164.424 84.1867 164.424 87.344C164.424 90.544 164.872 93.3173 165.768 95.664C166.706 97.968 168.029 99.7387 169.736 100.976C171.442 102.213 173.469 102.832 175.816 102.832C178.888 102.832 181.256 101.979 182.92 100.272C184.626 98.5227 185.693 96.112 186.12 93.04L196.296 93.424C195.698 97.136 194.525 100.293 192.776 102.896C191.026 105.499 188.722 107.504 185.864 108.912C183.048 110.32 179.656 111.024 175.688 111.024ZM212.022 110V72.752H198.454V64.56H235.446V72.752H221.814V110H212.022ZM239.611 110V64.56H259.515C262.843 64.56 265.723 65.1147 268.155 66.224C270.63 67.3333 272.528 68.912 273.851 70.96C275.174 72.9653 275.835 75.3547 275.835 78.128C275.835 80.2187 275.387 82.0747 274.491 83.696C273.638 85.3173 272.443 86.64 270.907 87.664C269.414 88.688 267.686 89.328 265.723 89.584L265.531 89.008C268.56 89.008 270.864 89.6693 272.443 90.992C274.022 92.272 274.918 94.256 275.131 96.944L276.283 110H266.363L265.531 98.48C265.403 96.7307 264.848 95.4507 263.867 94.64C262.928 93.7867 261.307 93.36 259.003 93.36H249.339V110H239.611ZM249.339 85.232H258.427C260.774 85.232 262.587 84.6987 263.867 83.632C265.19 82.5227 265.851 80.9653 265.851 78.96C265.851 76.912 265.19 75.376 263.867 74.352C262.544 73.2853 260.624 72.752 258.107 72.752H249.339V85.232ZM302.028 111.024C298.188 111.024 294.86 110.32 292.044 108.912C289.271 107.504 287.116 105.499 285.58 102.896C284.044 100.251 283.276 97.1573 283.276 93.616V64.496H293.004V93.616C293.004 96.56 293.772 98.8427 295.308 100.464C296.887 102.043 299.127 102.832 302.028 102.832C304.929 102.832 307.148 102.043 308.684 100.464C310.22 98.8427 310.988 96.56 310.988 93.616V64.496H320.716V93.616C320.716 97.1573 319.948 100.251 318.412 102.896C316.919 105.499 314.764 107.504 311.948 108.912C309.132 110.32 305.825 111.024 302.028 111.024ZM347.22 111.024C343.295 111.024 339.924 110.363 337.108 109.04C334.292 107.717 332.095 105.861 330.516 103.472C328.937 101.083 328.041 98.2667 327.828 95.024L337.62 94.576C337.876 96.368 338.388 97.904 339.156 99.184C339.967 100.421 341.033 101.36 342.356 102C343.721 102.64 345.385 102.96 347.348 102.96C348.969 102.96 350.335 102.768 351.444 102.384C352.596 102 353.471 101.424 354.068 100.656C354.665 99.8453 354.964 98.864 354.964 97.712C354.964 96.6453 354.708 95.728 354.196 94.96C353.684 94.1493 352.703 93.424 351.252 92.784C349.801 92.1013 347.668 91.44 344.852 90.8C340.969 89.904 337.833 88.9013 335.444 87.792C333.097 86.6827 331.391 85.296 330.324 83.632C329.257 81.9253 328.724 79.792 328.724 77.232C328.724 74.5013 329.385 72.112 330.708 70.064C332.073 68.016 334.036 66.416 336.596 65.264C339.156 64.112 342.207 63.536 345.748 63.536C349.503 63.536 352.681 64.1973 355.284 65.52C357.887 66.8427 359.913 68.656 361.364 70.96C362.857 73.264 363.753 75.9093 364.052 78.896L354.324 79.408C354.196 77.8293 353.769 76.464 353.044 75.312C352.319 74.1173 351.337 73.2 350.1 72.56C348.863 71.92 347.369 71.6 345.62 71.6C343.401 71.6 341.652 72.0907 340.372 73.072C339.135 74.0533 338.516 75.3333 338.516 76.912C338.516 78.0213 338.793 78.96 339.348 79.728C339.945 80.4533 340.905 81.0933 342.228 81.648C343.593 82.2027 345.513 82.736 347.988 83.248C352.212 84.1013 355.54 85.1893 357.972 86.512C360.447 87.792 362.196 89.328 363.22 91.12C364.244 92.912 364.756 94.96 364.756 97.264C364.756 100.08 364.031 102.533 362.58 104.624C361.172 106.672 359.145 108.251 356.5 109.36C353.897 110.469 350.804 111.024 347.22 111.024ZM379.772 110V72.752H366.204V64.56H403.196V72.752H389.564V110H379.772Z" fill="white"/>
</svg>
